<svg width="107" height="107" viewBox="0 0 107 107" fill="none" xmlns="http://www.w3.org/2000/svg">
<path d="M53.5 16.7188C52.4754 16.7188 51.4609 16.9206 50.5143 17.3127C49.5677 17.7048 48.7076 18.2795 47.9831 19.004C47.2586 19.7285 46.6839 20.5886 46.2918 21.5351C45.8997 22.4817 45.6979 23.4963 45.6979 24.5209C45.6979 25.5455 45.8997 26.56 46.2918 27.5066C46.6839 28.4532 47.2586 29.3133 47.9831 30.0378C48.7076 30.7623 49.5677 31.337 50.5143 31.7291C51.4609 32.1211 52.4754 32.323 53.5 32.323C55.5693 32.323 57.5538 31.501 59.0169 30.0378C60.4801 28.5746 61.3021 26.5901 61.3021 24.5209C61.3021 22.4516 60.4801 20.4671 59.0169 19.004C57.5538 17.5408 55.5693 16.7188 53.5 16.7188ZM40.125 24.5209C40.125 20.9736 41.5342 17.5716 44.0425 15.0633C46.5508 12.555 49.9528 11.1459 53.5 11.1459C57.0473 11.1459 60.4493 12.555 62.9576 15.0633C65.4659 17.5716 66.875 20.9736 66.875 24.5209C66.875 28.0681 65.4659 31.4701 62.9576 33.9784C60.4493 36.4867 57.0473 37.8959 53.5 37.8959C49.9528 37.8959 46.5508 36.4867 44.0425 33.9784C41.5342 31.4701 40.125 28.0681 40.125 24.5209ZM82.4792 21.1771C81.0012 21.1771 79.5837 21.7643 78.5385 22.8094C77.4934 23.8545 76.9063 25.272 76.9063 26.75C76.9063 28.2281 77.4934 29.6456 78.5385 30.6907C79.5837 31.7358 81.0012 32.323 82.4792 32.323C83.9572 32.323 85.3747 31.7358 86.4198 30.6907C87.465 29.6456 88.0521 28.2281 88.0521 26.75C88.0521 25.272 87.465 23.8545 86.4198 22.8094C85.3747 21.7643 83.9572 21.1771 82.4792 21.1771ZM71.3334 26.75C71.3334 23.794 72.5076 20.959 74.5979 18.8687C76.6881 16.7785 79.5231 15.6042 82.4792 15.6042C85.4352 15.6042 88.2702 16.7785 90.3605 18.8687C92.4507 20.959 93.625 23.794 93.625 26.75C93.625 29.7061 92.4507 32.5411 90.3605 34.6313C88.2702 36.7216 85.4352 37.8959 82.4792 37.8959C79.5231 37.8959 76.6881 36.7216 74.5979 34.6313C72.5076 32.5411 71.3334 29.7061 71.3334 26.75ZM18.9479 26.75C18.9479 25.272 19.5351 23.8545 20.5802 22.8094C21.6253 21.7643 23.0428 21.1771 24.5209 21.1771C25.9989 21.1771 27.4164 21.7643 28.4615 22.8094C29.5066 23.8545 30.0938 25.272 30.0938 26.75C30.0938 28.2281 29.5066 29.6456 28.4615 30.6907C27.4164 31.7358 25.9989 32.323 24.5209 32.323C23.0428 32.323 21.6253 31.7358 20.5802 30.6907C19.5351 29.6456 18.9479 28.2281 18.9479 26.75ZM24.5209 15.6042C21.5648 15.6042 18.7298 16.7785 16.6396 18.8687C14.5493 20.959 13.375 23.794 13.375 26.75C13.375 29.7061 14.5493 32.5411 16.6396 34.6313C18.7298 36.7216 21.5648 37.8959 24.5209 37.8959C27.4769 37.8959 30.3119 36.7216 32.4021 34.6313C34.4924 32.5411 35.6667 29.7061 35.6667 26.75C35.6667 23.794 34.4924 20.959 32.4021 18.8687C30.3119 16.7785 27.4769 15.6042 24.5209 15.6042ZM33.4375 51.8282C33.4375 49.3155 34.4357 46.9058 36.2124 45.1291C37.9891 43.3524 40.3988 42.3542 42.9115 42.3542H64.0886C66.6012 42.3542 69.011 43.3524 70.7877 45.1291C72.5644 46.9058 73.5625 49.3155 73.5625 51.8282V75.7917C73.5625 81.1126 71.4488 86.2156 67.6864 89.978C63.9239 93.7405 58.8209 95.8542 53.5 95.8542C48.1791 95.8542 43.0761 93.7405 39.3137 89.978C35.5512 86.2156 33.4375 81.1126 33.4375 75.7917V51.8282ZM53.5 90.2813C57.3429 90.2813 61.0284 88.7547 63.7457 86.0374C66.463 83.3201 67.9896 79.6346 67.9896 75.7917V51.8282C67.9896 50.7935 67.5786 49.8013 66.847 49.0697C66.1154 48.3381 65.1232 47.9271 64.0886 47.9271H42.9115C41.8769 47.9271 40.8846 48.3381 40.153 49.0697C39.4214 49.8013 39.0104 50.7935 39.0104 51.8282V75.7917C39.0104 79.6346 40.537 83.3201 43.2543 86.0374C45.9717 88.7547 49.6571 90.2813 53.5 90.2813ZM24.5209 83.5938C26.3847 83.5943 28.2118 83.0756 29.7973 82.0958C30.2855 83.9371 30.9832 85.6914 31.8615 87.3343C29.4837 88.6019 26.8182 89.2322 24.1245 89.1637C21.4309 89.0953 18.8008 88.3305 16.4905 86.9438C14.1801 85.5571 12.2683 83.5958 10.941 81.2508C9.61373 78.9058 8.91633 76.2571 8.91669 73.5625V51.8304C8.91639 50.5861 9.16123 49.3539 9.63721 48.2042C10.1132 47.0545 10.811 46.0098 11.6908 45.1299C12.5705 44.2499 13.615 43.5518 14.7646 43.0756C15.9142 42.5993 17.1463 42.3542 18.3906 42.3542H30.6511C31.2945 42.3557 31.9195 42.4174 32.5258 42.5392C31.1375 44.0887 30.1145 45.9299 29.532 47.9271H18.3906C17.356 47.9271 16.3638 48.3381 15.6322 49.0697C14.9006 49.8013 14.4896 50.7935 14.4896 51.8282V73.5625C14.4896 76.223 15.5465 78.7745 17.4277 80.6557C19.3089 82.5369 21.8604 83.5938 24.5209 83.5938ZM82.4792 89.1667C79.9192 89.168 77.3983 88.5395 75.1385 87.3366C76.0168 85.6914 76.7146 83.9371 77.2028 82.0958C78.7224 83.0356 80.4655 83.5525 82.2518 83.593C84.0381 83.6335 85.8028 83.1962 87.3635 82.3262C88.9241 81.4562 90.2241 80.1852 91.129 78.6444C92.0338 77.1037 92.5108 75.3493 92.5104 73.5625V51.8282C92.5104 50.7935 92.0994 49.8013 91.3679 49.0697C90.6363 48.3381 89.644 47.9271 88.6094 47.9271H77.468C76.8849 45.9297 75.8611 44.0885 74.472 42.5392C75.0813 42.4174 75.707 42.3557 76.349 42.3542H88.6094C91.122 42.3542 93.5318 43.3524 95.3085 45.1291C97.0852 46.9058 98.0834 49.3155 98.0834 51.8282V73.5625C98.0834 77.701 96.4394 81.67 93.513 84.5964C90.5867 87.5227 86.6177 89.1667 82.4792 89.1667Z" fill="#026742"/>
</svg>
