<svg width="80" height="80" viewBox="0 0 80 80" fill="none" xmlns="http://www.w3.org/2000/svg">
<path d="M13.5 34.4792C13.5 33.1742 13.757 31.8819 14.2564 30.6762C14.7559 29.4706 15.4878 28.3751 16.4106 27.4523C17.3334 26.5295 18.4289 25.7975 19.6346 25.2981C20.8403 24.7987 22.1325 24.5417 23.4375 24.5417C24.7425 24.5417 26.0347 24.7987 27.2404 25.2981C28.4461 25.7975 29.5416 26.5295 30.4644 27.4523C31.3872 28.3751 32.1191 29.4706 32.6185 30.6762C33.118 31.8819 33.375 33.1742 33.375 34.4792C33.375 37.1148 32.328 39.6424 30.4644 41.506C28.6007 43.3697 26.0731 44.4167 23.4375 44.4167C20.8019 44.4167 18.2743 43.3697 16.4106 41.506C14.547 39.6424 13.5 37.1148 13.5 34.4792ZM23.4375 31.1667C22.559 31.1667 21.7164 31.5157 21.0952 32.1369C20.474 32.7581 20.125 33.6006 20.125 34.4792C20.125 35.3577 20.474 36.2002 21.0952 36.8215C21.7164 37.4427 22.559 37.7917 23.4375 37.7917C24.316 37.7917 25.1586 37.4427 25.7798 36.8215C26.401 36.2002 26.75 35.3577 26.75 34.4792C26.75 33.6006 26.401 32.7581 25.7798 32.1369C25.1586 31.5157 24.316 31.1667 23.4375 31.1667ZM23.4375 48.8333C20.8019 48.8333 18.2743 49.8803 16.4106 51.744C14.547 53.6076 13.5 56.1352 13.5 58.7708C13.5 61.4064 14.547 63.9341 16.4106 65.7977C18.2743 67.6613 20.8019 68.7083 23.4375 68.7083C26.0731 68.7083 28.6007 67.6613 30.4644 65.7977C32.328 63.9341 33.375 61.4064 33.375 58.7708C33.375 56.1352 32.328 53.6076 30.4644 51.744C28.6007 49.8803 26.0731 48.8333 23.4375 48.8333ZM20.125 58.7708C20.125 57.8923 20.474 57.0498 21.0952 56.4285C21.7164 55.8073 22.559 55.4583 23.4375 55.4583C24.316 55.4583 25.1586 55.8073 25.7798 56.4285C26.401 57.0498 26.75 57.8923 26.75 58.7708C26.75 59.6494 26.401 60.4919 25.7798 61.1131C25.1586 61.7343 24.316 62.0833 23.4375 62.0833C22.559 62.0833 21.7164 61.7343 21.0952 61.1131C20.474 60.4919 20.125 59.6494 20.125 58.7708ZM40 34.4792C40 33.6006 40.349 32.7581 40.9702 32.1369C41.5914 31.5157 42.434 31.1667 43.3125 31.1667H63.1875C64.066 31.1667 64.9086 31.5157 65.5298 32.1369C66.151 32.7581 66.5 33.6006 66.5 34.4792C66.5 35.3577 66.151 36.2002 65.5298 36.8215C64.9086 37.4427 64.066 37.7917 63.1875 37.7917H43.3125C42.434 37.7917 41.5914 37.4427 40.9702 36.8215C40.349 36.2002 40 35.3577 40 34.4792ZM43.3125 55.4583C42.434 55.4583 41.5914 55.8073 40.9702 56.4285C40.349 57.0498 40 57.8923 40 58.7708C40 59.6494 40.349 60.4919 40.9702 61.1131C41.5914 61.7343 42.434 62.0833 43.3125 62.0833H63.1875C64.066 62.0833 64.9086 61.7343 65.5298 61.1131C66.151 60.4919 66.5 59.6494 66.5 58.7708C66.5 57.8923 66.151 57.0498 65.5298 56.4285C64.9086 55.8073 64.066 55.4583 63.1875 55.4583H43.3125ZM13.5 16.8125C13.5 15.934 13.849 15.0914 14.4702 14.4702C15.0914 13.849 15.934 13.5 16.8125 13.5H63.1875C64.066 13.5 64.9086 13.849 65.5298 14.4702C66.151 15.0914 66.5 15.934 66.5 16.8125C66.5 17.691 66.151 18.5336 65.5298 19.1548C64.9086 19.776 64.066 20.125 63.1875 20.125H16.8125C15.934 20.125 15.0914 19.776 14.4702 19.1548C13.849 18.5336 13.5 17.691 13.5 16.8125ZM14.6042 0.25C10.7972 0.25 7.14617 1.76231 4.45424 4.45424C1.76231 7.14617 0.25 10.7972 0.25 14.6042V65.3958C0.25 69.2028 1.76231 72.8538 4.45424 75.5458C7.14617 78.2377 10.7972 79.75 14.6042 79.75H65.3958C69.2028 79.75 72.8538 78.2377 75.5458 75.5458C78.2377 72.8538 79.75 69.2028 79.75 65.3958V14.6042C79.75 10.7972 78.2377 7.14617 75.5458 4.45424C72.8538 1.76231 69.2028 0.25 65.3958 0.25H14.6042ZM6.875 14.6042C6.875 10.3377 10.3377 6.875 14.6042 6.875H65.3958C69.6623 6.875 73.125 10.3377 73.125 14.6042V65.3958C73.125 67.4457 72.3107 69.4117 70.8612 70.8612C69.4117 72.3107 67.4457 73.125 65.3958 73.125H14.6042C12.5543 73.125 10.5883 72.3107 9.13882 70.8612C7.68932 69.4117 6.875 67.4457 6.875 65.3958V14.6042Z" fill="#026742"/>
</svg>
