<svg width="106" height="106" viewBox="0 0 106 106" fill="none" xmlns="http://www.w3.org/2000/svg">
<path d="M26.5 47.4792C26.5 46.1742 26.757 44.8819 27.2564 43.6762C27.7559 42.4706 28.4878 41.3751 29.4106 40.4523C30.3334 39.5295 31.4289 38.7975 32.6346 38.2981C33.8403 37.7987 35.1325 37.5417 36.4375 37.5417C37.7425 37.5417 39.0347 37.7987 40.2404 38.2981C41.4461 38.7975 42.5416 39.5295 43.4644 40.4523C44.3872 41.3751 45.1191 42.4706 45.6185 43.6762C46.118 44.8819 46.375 46.1742 46.375 47.4792C46.375 50.1148 45.328 52.6424 43.4644 54.506C41.6007 56.3697 39.0731 57.4167 36.4375 57.4167C33.8019 57.4167 31.2743 56.3697 29.4106 54.506C27.547 52.6424 26.5 50.1148 26.5 47.4792ZM36.4375 44.1667C35.559 44.1667 34.7164 44.5157 34.0952 45.1369C33.474 45.7581 33.125 46.6006 33.125 47.4792C33.125 48.3577 33.474 49.2002 34.0952 49.8215C34.7164 50.4427 35.559 50.7917 36.4375 50.7917C37.316 50.7917 38.1586 50.4427 38.7798 49.8215C39.401 49.2002 39.75 48.3577 39.75 47.4792C39.75 46.6006 39.401 45.7581 38.7798 45.1369C38.1586 44.5157 37.316 44.1667 36.4375 44.1667ZM36.4375 61.8333C33.8019 61.8333 31.2743 62.8803 29.4106 64.744C27.547 66.6076 26.5 69.1352 26.5 71.7708C26.5 74.4064 27.547 76.9341 29.4106 78.7977C31.2743 80.6613 33.8019 81.7083 36.4375 81.7083C39.0731 81.7083 41.6007 80.6613 43.4644 78.7977C45.328 76.9341 46.375 74.4064 46.375 71.7708C46.375 69.1352 45.328 66.6076 43.4644 64.744C41.6007 62.8803 39.0731 61.8333 36.4375 61.8333ZM33.125 71.7708C33.125 70.8923 33.474 70.0498 34.0952 69.4285C34.7164 68.8073 35.559 68.4583 36.4375 68.4583C37.316 68.4583 38.1586 68.8073 38.7798 69.4285C39.401 70.0498 39.75 70.8923 39.75 71.7708C39.75 72.6494 39.401 73.4919 38.7798 74.1131C38.1586 74.7343 37.316 75.0833 36.4375 75.0833C35.559 75.0833 34.7164 74.7343 34.0952 74.1131C33.474 73.4919 33.125 72.6494 33.125 71.7708ZM53 47.4792C53 46.6006 53.349 45.7581 53.9702 45.1369C54.5914 44.5157 55.434 44.1667 56.3125 44.1667H76.1875C77.066 44.1667 77.9086 44.5157 78.5298 45.1369C79.151 45.7581 79.5 46.6006 79.5 47.4792C79.5 48.3577 79.151 49.2002 78.5298 49.8215C77.9086 50.4427 77.066 50.7917 76.1875 50.7917H56.3125C55.434 50.7917 54.5914 50.4427 53.9702 49.8215C53.349 49.2002 53 48.3577 53 47.4792ZM56.3125 68.4583C55.434 68.4583 54.5914 68.8073 53.9702 69.4285C53.349 70.0498 53 70.8923 53 71.7708C53 72.6494 53.349 73.4919 53.9702 74.1131C54.5914 74.7343 55.434 75.0833 56.3125 75.0833H76.1875C77.066 75.0833 77.9086 74.7343 78.5298 74.1131C79.151 73.4919 79.5 72.6494 79.5 71.7708C79.5 70.8923 79.151 70.0498 78.5298 69.4285C77.9086 68.8073 77.066 68.4583 76.1875 68.4583H56.3125ZM26.5 29.8125C26.5 28.934 26.849 28.0914 27.4702 27.4702C28.0914 26.849 28.934 26.5 29.8125 26.5H76.1875C77.066 26.5 77.9086 26.849 78.5298 27.4702C79.151 28.0914 79.5 28.934 79.5 29.8125C79.5 30.691 79.151 31.5336 78.5298 32.1548C77.9086 32.776 77.066 33.125 76.1875 33.125H29.8125C28.934 33.125 28.0914 32.776 27.4702 32.1548C26.849 31.5336 26.5 30.691 26.5 29.8125ZM27.6042 13.25C23.7972 13.25 20.1462 14.7623 17.4542 17.4542C14.7623 20.1462 13.25 23.7972 13.25 27.6042V78.3958C13.25 82.2028 14.7623 85.8538 17.4542 88.5458C20.1462 91.2377 23.7972 92.75 27.6042 92.75H78.3958C82.2028 92.75 85.8538 91.2377 88.5458 88.5458C91.2377 85.8538 92.75 82.2028 92.75 78.3958V27.6042C92.75 23.7972 91.2377 20.1462 88.5458 17.4542C85.8538 14.7623 82.2028 13.25 78.3958 13.25H27.6042ZM19.875 27.6042C19.875 23.3377 23.3377 19.875 27.6042 19.875H78.3958C82.6623 19.875 86.125 23.3377 86.125 27.6042V78.3958C86.125 80.4457 85.3107 82.4117 83.8612 83.8612C82.4117 85.3107 80.4457 86.125 78.3958 86.125H27.6042C25.5543 86.125 23.5883 85.3107 22.1388 83.8612C20.6893 82.4117 19.875 80.4457 19.875 78.3958V27.6042Z" fill="#026742"/>
</svg>
