<svg width="30" height="30" viewBox="0 0 30 30" fill="none" xmlns="http://www.w3.org/2000/svg">
<path d="M7.49981 3.77516C9.71987 2.29176 12.33 1.5 15 1.5C18.5804 1.5 22.0142 2.92232 24.5459 5.45406C27.0777 7.9858 28.5 11.4196 28.5 15C28.5 17.67 27.7082 20.2801 26.2248 22.5002C24.7414 24.7203 22.633 26.4506 20.1662 27.4724C17.6994 28.4942 14.985 28.7615 12.3663 28.2406C9.74754 27.7197 7.34207 26.434 5.45407 24.5459C3.56606 22.6579 2.28031 20.2525 1.7594 17.6337C1.2385 15.015 1.50585 12.3006 2.52763 9.83377C3.54942 7.36697 5.27974 5.25856 7.49981 3.77516ZM8.61095 24.5619C10.5021 25.8255 12.7255 26.5 15 26.5C18.05 26.5 20.9751 25.2884 23.1317 23.1317C25.2884 20.9751 26.5 18.05 26.5 15C26.5 12.7255 25.8255 10.5021 24.5619 8.61094C23.2983 6.71978 21.5022 5.24579 19.4009 4.37539C17.2995 3.50498 14.9872 3.27724 12.7565 3.72097C10.5257 4.1647 8.47658 5.25997 6.86828 6.86827C5.25997 8.47658 4.16471 10.5257 3.72098 12.7565C3.27725 14.9872 3.50498 17.2995 4.37539 19.4009C5.2458 21.5022 6.71978 23.2983 8.61095 24.5619Z" fill="#026742" stroke="black" stroke-width="0.5"/>
<path d="M15 7.75C15.5523 7.75 16 8.19772 16 8.75V15C16 15.5523 15.5523 16 15 16C14.4477 16 14 15.5523 14 15L14 8.75C14 8.19772 14.4477 7.75 15 7.75Z" fill="#026742" stroke="black" stroke-width="0.5"/>
<path d="M15 14C15.5523 14 16 14.4477 16 15L16 23.75C16 24.3023 15.5523 24.75 15 24.75C14.4477 24.75 14 24.3023 14 23.75L14 15C14 14.4477 14.4477 14 15 14Z" fill="#026742" stroke="black" stroke-width="0.5"/>
</svg>
