<svg width="97" height="67" viewBox="0 0 97 67" fill="none" xmlns="http://www.w3.org/2000/svg">
<path d="M7.12509 67C5.09397 67 3.39941 66.3211 2.04141 64.9634C0.683409 63.6057 0.00293939 61.9152 0 59.8918V7.10819C0 5.08482 0.68047 3.39428 2.04141 2.03657C3.40235 0.678857 5.09544 0 7.12068 0H89.8793C91.9075 0 93.6021 0.678857 94.963 2.03657C96.3239 3.39428 97.0029 5.08482 97 7.10819V59.8918C97 61.9152 96.321 63.6057 94.963 64.9634C93.605 66.3211 91.9104 67 89.8793 67H7.12509ZM60.7793 62.6014H89.8793C90.5554 62.6014 91.1771 62.3184 91.7444 61.7524C92.3087 61.1894 92.5909 60.5692 92.5909 59.8918V7.10819C92.5909 6.43374 92.3087 5.81353 91.7444 5.24757C91.1771 4.68455 90.5539 4.40303 89.8749 4.40303H7.12509C6.44609 4.40303 5.82294 4.68455 5.25564 5.24757C4.68833 5.8106 4.40615 6.4308 4.40909 7.10819V59.8918C4.40909 60.5663 4.69127 61.1865 5.25564 61.7524C5.82 62.3184 6.44168 62.6014 7.12068 62.6014H9.76614C12.8525 58.625 16.6061 55.4316 21.027 53.0211C25.4478 50.6107 30.1964 49.4055 35.2727 49.4055C40.3491 49.4055 45.0962 50.6107 49.5141 53.0211C53.932 55.4316 57.6871 58.625 60.7793 62.6014ZM35.2727 43.309C38.3268 43.309 40.9281 42.2372 43.0768 40.0936C45.2255 37.95 46.2984 35.3548 46.2955 32.308C46.2925 29.2612 45.2196 26.6689 43.0768 24.5312C40.934 22.3934 38.3326 21.3216 35.2727 21.3158C32.2128 21.3099 29.6115 22.3803 27.4686 24.5268C25.3258 26.6733 24.2529 29.2685 24.25 32.3124C24.2471 35.3562 25.3199 37.95 27.4686 40.0936C29.6173 42.2372 32.2187 43.3119 35.2727 43.309ZM76.3125 57.3494L83.4332 50.2456L78.01 42.9703H70.3911C69.8385 41.3134 69.4432 39.7329 69.2051 38.2285C68.967 36.7242 68.8494 35.148 68.8524 33.5C68.8553 31.852 68.9729 30.311 69.2051 28.877C69.4373 27.4431 69.8341 25.8258 70.3955 24.0253H78.0056L83.4332 16.75L76.3125 9.64621C72.7382 12.5552 69.9502 16.0931 67.9485 20.2601C65.9497 24.4242 64.9503 28.8374 64.9503 33.5C64.9503 38.1626 65.9497 42.5759 67.9485 46.7399C69.9473 50.9039 72.7353 54.4375 76.3125 57.3494ZM15.6523 62.6014H54.8932C52.3359 59.8156 49.3642 57.6529 45.978 56.1134C42.5889 54.5739 39.0205 53.8041 35.2727 53.8041C31.525 53.8041 27.961 54.5739 24.5807 56.1134C21.2004 57.6529 18.2242 59.8156 15.6523 62.6014ZM35.2727 38.9103C33.4591 38.9103 31.9027 38.2637 30.6035 36.9705C29.3072 35.6744 28.6591 34.1202 28.6591 32.308C28.6591 30.4957 29.3072 28.9445 30.6035 27.6542C31.8998 26.3639 33.4562 25.7188 35.2727 25.7188C37.0893 25.7188 38.6457 26.3654 39.942 27.6586C41.2382 28.9518 41.8864 30.5045 41.8864 32.3168C41.8864 34.129 41.2382 35.6817 39.942 36.9749C38.6427 38.2652 37.0863 38.9103 35.2727 38.9103Z" fill="#026742"/>
</svg>
