<svg width="23" height="23" viewBox="0 0 23 23" fill="none" xmlns="http://www.w3.org/2000/svg">
<path d="M6 0.75C6.625 0.75 9.125 6.375 9.125 7C9.125 8.25 7.25 9.5 6.625 10.75C6 12 7.25 13.25 8.5 14.5C8.9875 14.9875 11 17 12.25 16.375C13.5 15.75 14.75 13.875 16 13.875C16.625 13.875 22.25 16.375 22.25 17C22.25 19.5 20.375 21.375 18.5 22C16.625 22.625 15.375 22.625 12.875 22C10.375 21.375 8.5 20.75 5.375 17.625C2.25 14.5 1.625 12.625 1 10.125C0.375 7.625 0.375 6.375 1 4.5C1.625 2.625 3.5 0.75 6 0.75Z" fill="#026742" stroke="black" stroke-width="0.5" stroke-linecap="round" stroke-linejoin="round"/>
</svg>
