<svg width="81" height="70" viewBox="0 0 81 70" fill="none" xmlns="http://www.w3.org/2000/svg">
<path d="M76.337 17.0959C77.0716 16.198 77.6221 15.1643 77.9572 14.0537C78.2923 12.943 78.4053 11.7773 78.2898 10.623C78.1744 9.46871 77.8327 8.34846 77.2843 7.32621C76.7359 6.30396 75.9916 5.39973 75.0937 4.66515C74.1959 3.93057 73.1621 3.38004 72.0515 3.04497C70.9409 2.7099 69.7752 2.59686 68.6209 2.71231C67.4666 2.82776 66.3463 3.16944 65.3241 3.71783C64.3018 4.26623 63.3976 5.0106 62.663 5.90844L28.2748 47.9374L17.3833 39.7666C16.4553 39.0706 15.3993 38.5642 14.2756 38.2763C13.1519 37.9884 11.9825 37.9247 10.8341 38.0887C9.68576 38.2528 8.58097 38.6414 7.58281 39.2324C6.58465 39.8234 5.71267 40.6053 5.01667 41.5333C4.32066 42.4613 3.81426 43.5173 3.52636 44.641C3.23847 45.7647 3.17473 46.9341 3.33878 48.0825C3.67009 50.4017 4.90914 52.4943 6.78333 53.8999L21.0624 64.6104C23.7961 66.661 27.2164 67.5762 30.6089 67.1647C34.0014 66.7532 37.1038 65.0468 39.2679 62.402L76.337 17.0959Z" stroke="#026742" stroke-width="5" stroke-linecap="round"/>
</svg>
