<svg width="106" height="106" viewBox="0 0 106 106" fill="none" xmlns="http://www.w3.org/2000/svg">
<path d="M86.337 32.0959C87.0716 31.198 87.6221 30.1643 87.9572 29.0537C88.2923 27.943 88.4053 26.7773 88.2898 25.623C88.1744 24.4687 87.8327 23.3485 87.2843 22.3262C86.7359 21.304 85.9916 20.3997 85.0937 19.6652C84.1959 18.9306 83.1621 18.38 82.0515 18.045C80.9409 17.7099 79.7752 17.5969 78.6209 17.7123C77.4666 17.8278 76.3463 18.1694 75.3241 18.7178C74.3018 19.2662 73.3976 20.0106 72.663 20.9084L38.2748 62.9374L27.3833 54.7666C26.4553 54.0706 25.3993 53.5642 24.2756 53.2763C23.1519 52.9884 21.9825 52.9247 20.8341 53.0887C19.6858 53.2528 18.581 53.6414 17.5828 54.2324C16.5846 54.8234 15.7127 55.6053 15.0167 56.5333C14.3207 57.4613 13.8143 58.5173 13.5264 59.641C13.2385 60.7647 13.1747 61.9341 13.3388 63.0825C13.6701 65.4017 14.9091 67.4943 16.7833 68.8999L31.0624 79.6104C33.7961 81.661 37.2164 82.5762 40.6089 82.1647C44.0014 81.7532 47.1038 80.0468 49.2679 77.402L86.337 32.0959Z" stroke="#026742" stroke-width="5" stroke-linecap="round"/>
</svg>
